<mxfile>
    <diagram id="4a0mZ1GBRXUUcuxUUXzA" name="Page-1">
        <mxGraphModel dx="734" dy="1561" grid="0" gridSize="10" guides="1" tooltips="1" connect="1" arrows="1" fold="1" page="1" pageScale="1" pageWidth="827" pageHeight="1169" math="0" shadow="0">
            <root>
                <mxCell id="0"/>
                <mxCell id="1" parent="0"/>
                <mxCell id="2" value="«interface»&lt;br&gt;&lt;b&gt;Command&lt;/b&gt;" style="html=1;" parent="1" vertex="1">
                    <mxGeometry x="360" y="60" width="110" height="50" as="geometry"/>
                </mxCell>
                <mxCell id="3" value="+ execute () ;" style="html=1;" parent="1" vertex="1">
                    <mxGeometry x="360" y="110" width="110" height="50" as="geometry"/>
                </mxCell>
                <mxCell id="4" value="SimpleCommand" style="swimlane;fontStyle=1;align=center;verticalAlign=top;childLayout=stackLayout;horizontal=1;startSize=26;horizontalStack=0;resizeParent=1;resizeParentMax=0;resizeLast=0;collapsible=1;marginBottom=0;" parent="1" vertex="1">
                    <mxGeometry x="440" y="211" width="160" height="110" as="geometry"/>
                </mxCell>
                <mxCell id="5" value="- playload ;" style="text;strokeColor=none;fillColor=none;align=left;verticalAlign=top;spacingLeft=4;spacingRight=4;overflow=hidden;rotatable=0;points=[[0,0.5],[1,0.5]];portConstraint=eastwest;" parent="4" vertex="1">
                    <mxGeometry y="26" width="160" height="26" as="geometry"/>
                </mxCell>
                <mxCell id="6" value="" style="line;strokeWidth=1;fillColor=none;align=left;verticalAlign=middle;spacingTop=-1;spacingLeft=3;spacingRight=3;rotatable=0;labelPosition=right;points=[];portConstraint=eastwest;" parent="4" vertex="1">
                    <mxGeometry y="52" width="160" height="8" as="geometry"/>
                </mxCell>
                <mxCell id="7" value="+ constructor () ;&#10;+ execute () ;" style="text;strokeColor=none;fillColor=none;align=left;verticalAlign=top;spacingLeft=4;spacingRight=4;overflow=hidden;rotatable=0;points=[[0,0.5],[1,0.5]];portConstraint=eastwest;" parent="4" vertex="1">
                    <mxGeometry y="60" width="160" height="50" as="geometry"/>
                </mxCell>
                <mxCell id="8" value="ComplexCommand" style="swimlane;fontStyle=1;align=center;verticalAlign=top;childLayout=stackLayout;horizontal=1;startSize=26;horizontalStack=0;resizeParent=1;resizeParentMax=0;resizeLast=0;collapsible=1;marginBottom=0;" parent="1" vertex="1">
                    <mxGeometry x="240" y="211" width="160" height="138" as="geometry"/>
                </mxCell>
                <mxCell id="9" value="- chief ;&#10;- mainCourse ;&#10;- desert ;" style="text;strokeColor=none;fillColor=none;align=left;verticalAlign=top;spacingLeft=4;spacingRight=4;overflow=hidden;rotatable=0;points=[[0,0.5],[1,0.5]];portConstraint=eastwest;" parent="8" vertex="1">
                    <mxGeometry y="26" width="160" height="54" as="geometry"/>
                </mxCell>
                <mxCell id="10" value="" style="line;strokeWidth=1;fillColor=none;align=left;verticalAlign=middle;spacingTop=-1;spacingLeft=3;spacingRight=3;rotatable=0;labelPosition=right;points=[];portConstraint=eastwest;" parent="8" vertex="1">
                    <mxGeometry y="80" width="160" height="8" as="geometry"/>
                </mxCell>
                <mxCell id="11" value="+ constructor () ;&#10;+ execute () ;" style="text;strokeColor=none;fillColor=none;align=left;verticalAlign=top;spacingLeft=4;spacingRight=4;overflow=hidden;rotatable=0;points=[[0,0.5],[1,0.5]];portConstraint=eastwest;" parent="8" vertex="1">
                    <mxGeometry y="88" width="160" height="50" as="geometry"/>
                </mxCell>
                <mxCell id="12" value="Chief" style="swimlane;fontStyle=1;align=center;verticalAlign=top;childLayout=stackLayout;horizontal=1;startSize=26;horizontalStack=0;resizeParent=1;resizeParentMax=0;resizeLast=0;collapsible=1;marginBottom=0;" parent="1" vertex="1">
                    <mxGeometry x="30" y="205" width="160" height="80" as="geometry"/>
                </mxCell>
                <mxCell id="14" value="" style="line;strokeWidth=1;fillColor=none;align=left;verticalAlign=middle;spacingTop=-1;spacingLeft=3;spacingRight=3;rotatable=0;labelPosition=right;points=[];portConstraint=eastwest;" parent="12" vertex="1">
                    <mxGeometry y="26" width="160" height="8" as="geometry"/>
                </mxCell>
                <mxCell id="15" value="+ doMainCourse () ;&#10;+ doDesert () ;" style="text;strokeColor=none;fillColor=none;align=left;verticalAlign=top;spacingLeft=4;spacingRight=4;overflow=hidden;rotatable=0;points=[[0,0.5],[1,0.5]];portConstraint=eastwest;" parent="12" vertex="1">
                    <mxGeometry y="34" width="160" height="46" as="geometry"/>
                </mxCell>
                <mxCell id="16" value="" style="endArrow=none;html=1;edgeStyle=orthogonalEdgeStyle;entryX=0.5;entryY=0;entryDx=0;entryDy=0;dashed=1;" parent="1" target="4" edge="1">
                    <mxGeometry relative="1" as="geometry">
                        <mxPoint x="320" y="211" as="sourcePoint"/>
                        <mxPoint x="500" y="180" as="targetPoint"/>
                        <Array as="points">
                            <mxPoint x="320" y="190"/>
                            <mxPoint x="520" y="190"/>
                        </Array>
                    </mxGeometry>
                </mxCell>
                <mxCell id="17" value="" style="endArrow=block;dashed=1;endFill=0;endSize=12;html=1;entryX=0.44;entryY=1;entryDx=0;entryDy=0;entryPerimeter=0;" edge="1" parent="1" target="3">
                    <mxGeometry width="160" relative="1" as="geometry">
                        <mxPoint x="410" y="190" as="sourcePoint"/>
                        <mxPoint x="720" y="140" as="targetPoint"/>
                    </mxGeometry>
                </mxCell>
                <mxCell id="18" value="" style="endArrow=open;endFill=1;endSize=12;html=1;entryX=1.005;entryY=0.283;entryDx=0;entryDy=0;entryPerimeter=0;exitX=0.007;exitY=0.745;exitDx=0;exitDy=0;exitPerimeter=0;" edge="1" parent="1" source="9" target="15">
                    <mxGeometry width="160" relative="1" as="geometry">
                        <mxPoint x="70" y="110" as="sourcePoint"/>
                        <mxPoint x="230" y="110" as="targetPoint"/>
                    </mxGeometry>
                </mxCell>
                <mxCell id="19" value="Waiter" style="swimlane;fontStyle=1;align=center;verticalAlign=top;childLayout=stackLayout;horizontal=1;startSize=26;horizontalStack=0;resizeParent=1;resizeParentMax=0;resizeLast=0;collapsible=1;marginBottom=0;" vertex="1" parent="1">
                    <mxGeometry x="120" y="-22" width="160" height="140" as="geometry"/>
                </mxCell>
                <mxCell id="20" value="- onStart ;&#10;- onFinish :" style="text;strokeColor=none;fillColor=none;align=left;verticalAlign=top;spacingLeft=4;spacingRight=4;overflow=hidden;rotatable=0;points=[[0,0.5],[1,0.5]];portConstraint=eastwest;" vertex="1" parent="19">
                    <mxGeometry y="26" width="160" height="44" as="geometry"/>
                </mxCell>
                <mxCell id="21" value="" style="line;strokeWidth=1;fillColor=none;align=left;verticalAlign=middle;spacingTop=-1;spacingLeft=3;spacingRight=3;rotatable=0;labelPosition=right;points=[];portConstraint=eastwest;" vertex="1" parent="19">
                    <mxGeometry y="70" width="160" height="8" as="geometry"/>
                </mxCell>
                <mxCell id="22" value="+ bringMenu () ;&#10;+ passOrderChief () ;&#10;+ doSomethingImpotern () ;" style="text;strokeColor=none;fillColor=none;align=left;verticalAlign=top;spacingLeft=4;spacingRight=4;overflow=hidden;rotatable=0;points=[[0,0.5],[1,0.5]];portConstraint=eastwest;" vertex="1" parent="19">
                    <mxGeometry y="78" width="160" height="62" as="geometry"/>
                </mxCell>
                <mxCell id="23" value="" style="endArrow=open;endFill=1;endSize=12;html=1;exitX=1.017;exitY=0.174;exitDx=0;exitDy=0;exitPerimeter=0;entryX=0;entryY=1;entryDx=0;entryDy=0;" edge="1" parent="1" source="22" target="2">
                    <mxGeometry width="160" relative="1" as="geometry">
                        <mxPoint x="310" y="120" as="sourcePoint"/>
                        <mxPoint x="470" y="120" as="targetPoint"/>
                    </mxGeometry>
                </mxCell>
            </root>
        </mxGraphModel>
    </diagram>
</mxfile>